<svg xmlns="http://www.w3.org/2000/svg" viewBox="0 0 1200 700" width="1200" height="700">
  <defs>
    <linearGradient id="g" x1="0" y1="0" x2="1" y2="1">
      <stop offset="0" stop-color="#ff8c3a"/>
      <stop offset="1" stop-color="#ffcc73"/>
    </linearGradient>
  </defs>
  <rect width="1200" height="700" fill="#0a0a0a"/>
  <g opacity=".12">
    <circle cx="200" cy="120" r="160" fill="url(#g)"/>
    <circle cx="1000" cy="600" r="240" fill="url(#g)"/>
  </g>
  <g transform="translate(150,80)">
    <rect x="0" y="240" width="900" height="360" rx="18" fill="#171717" stroke="#333" />
    <path d="M0,240 Q450,-30 900,240 Z" fill="#121212" stroke="#333"/>
    <rect x="250" y="340" width="400" height="180" rx="12" fill="#1f1f1f" stroke="#444"/>
    <rect x="265" y="355" width="370" height="150" rx="8" fill="#0d0d0d"/>
    <ellipse cx="450" cy="508" rx="180" ry="28" fill="#2a150f"/>
    <ellipse cx="450" cy="520" rx="150" ry="20" fill="#2f1a10"/>
    <g>
      <circle cx="420" cy="450" r="60" fill="#ff6a00" opacity=".95"/>
      <circle cx="475" cy="470" r="42" fill="#ffb347" opacity=".85"/>
      <path d="M380 470 q40 -120 70 -20 t70 30" fill="#ff8c3a" opacity=".9"/>
    </g>
  </g>
  <text x="50%" y="90%" text-anchor="middle" fill="#eee" font-size="36" font-family="Arial, sans-serif" opacity=".85">
    Holzofen-Feeling – Tutto Pizza
  </text>
</svg>
